<svg xmlns="http://www.w3.org/2000/svg" width="1200" height="430" viewBox="0 0 1200 430" role="img" aria-labelledby="t d"><title id="t">终端 Agent 评测主链</title><desc id="d">任务计划经环境和 Agent 执行，再由 Verifier 产生 Trial 结果。</desc><rect width="1200" height="430" rx="28" fill="#f7fafc"/><text x="55" y="60" font-size="29" font-family="Microsoft YaHei, sans-serif" font-weight="700" fill="#173149">终端 Agent 评测：结果来自环境副作用，不是最后一句文本</text><defs><marker id="a" markerWidth="10" markerHeight="10" refX="8" refY="3" orient="auto"><path d="M0 0L0 6L9 3z" fill="#4e687c"/></marker></defs><g font-family="Microsoft YaHei, sans-serif" text-anchor="middle"><g fill="#e4f0f8" stroke="#397899" stroke-width="2"><rect x="45" y="130" width="170" height="125" rx="18"/><rect x="275" y="130" width="170" height="125" rx="18"/><rect x="505" y="130" width="170" height="125" rx="18"/><rect x="735" y="130" width="170" height="125" rx="18"/><rect x="965" y="130" width="190" height="125" rx="18"/></g><g fill="#173148" font-size="18"><text x="130" y="170" font-weight="700">任务与计划</text><text x="130" y="205">数据集/Agent</text><text x="130" y="232">随机 Trial</text><text x="360" y="170" font-weight="700">环境阶段</text><text x="360" y="205">网络/资源</text><text x="360" y="232">目录/用户</text><text x="590" y="170" font-weight="700">Agent 执行</text><text x="590" y="205">命令/文件</text><text x="590" y="232">轨迹/成本</text><text x="820" y="170" font-weight="700">Verifier</text><text x="820" y="205">隐藏测试</text><text x="820" y="232">具名 reward</text><text x="1060" y="170" font-weight="700">TrialResult</text><text x="1060" y="205">异常/耗时</text><text x="1060" y="232">汇总/pass@k</text></g></g><g stroke="#4e687c" stroke-width="3" marker-end="url(#a)"><path d="M215 192H265"/><path d="M445 192H495"/><path d="M675 192H725"/><path d="M905 192H955"/></g><rect x="245" y="320" width="710" height="50" rx="13" fill="#fff1d9" stroke="#ca8d25"/><text x="600" y="352" text-anchor="middle" font-size="19" font-family="Microsoft YaHei, sans-serif" fill="#5e4315">环境、Agent、Verifier 任一层失败，都不能静默变成 reward 0</text></svg>
